<svg width="170" height="170" viewBox="0 0 170 170" fill="none" xmlns="http://www.w3.org/2000/svg">
<rect width="170" height="170" rx="85" fill="#FDFCF8"/>
<path d="M115.1 88.0825H85.4357C84.3367 88.0825 83.3014 87.653 82.522 86.8758L51.9804 56.2711C50.7957 55.0839 50.445 53.3162 51.0854 51.7645C51.7271 50.2129 53.2249 49.2106 54.9007 49.2106H82.8208C85.0486 49.2106 87.1426 50.0801 88.7158 51.6578L118.019 81.022C119.204 82.2092 119.556 83.9782 118.914 85.5286C118.273 87.0802 116.777 88.0825 115.1 88.0825ZM86.2736 81.9176H110.213L84.3666 56.0173C83.9535 55.6046 83.4053 55.3755 82.8208 55.3755H59.7876L86.2749 81.9176H86.2736Z" fill="#171717"/>
<path d="M115.107 120.79H87.1787C84.9508 120.79 82.8568 119.92 81.2837 118.342L51.9775 88.9742C50.7928 87.7871 50.442 86.0193 51.0825 84.469C51.7242 82.9199 53.2194 81.9176 54.8925 81.9176H84.565C85.651 81.9176 86.7149 82.3589 87.4814 83.1282L118.023 113.733C119.206 114.919 119.558 116.687 118.917 118.237C118.276 119.787 116.781 120.788 115.107 120.788V120.79ZM59.7886 88.0825L85.6341 113.983C86.0472 114.396 86.5954 114.625 87.18 114.625H110.213L83.7259 88.0825H59.7873H59.7886Z" fill="#171717"/>
</svg>
